<svg width="3824" height="1325" xmlns="http://www.w3.org/2000/svg" xmlns:xlink="http://www.w3.org/1999/xlink" xml:space="preserve" overflow="hidden"><g transform="translate(-260 -629)"><rect x="1172.5" y="657.5" width="1380" height="1293" stroke="#000000" stroke-width="6.875" stroke-miterlimit="8" fill="#FFFFFF"/><text font-family="Yu Gothic,Yu Gothic_MSFontService,sans-serif" font-weight="400" font-size="147" transform="matrix(1 0 0 1 1347.73 808)">UKB</text><text font-family="Yu Gothic,Yu Gothic_MSFontService,sans-serif" font-weight="400" font-size="147" transform="matrix(1 0 0 1 1657.11 808)">-</text><text font-family="Yu Gothic,Yu Gothic_MSFontService,sans-serif" font-weight="400" font-size="147" transform="matrix(1 0 0 1 1720.7 808)">RAP AWS</text><path d="M263.5 1259.83C263.5 1204.97 390.875 1160.5 548 1160.5 705.125 1160.5 832.5 1204.97 832.5 1259.83L832.5 1657.17C832.5 1712.03 705.125 1756.5 548 1756.5 390.875 1756.5 263.5 1712.03 263.5 1657.17Z" fill="#FFFFFF" fill-rule="evenodd"/><path d="M832.5 1259.83C832.5 1314.69 705.125 1359.17 548 1359.17 390.875 1359.17 263.5 1314.69 263.5 1259.83" stroke="#000000" stroke-width="6.875" stroke-miterlimit="8" fill="none" fill-rule="evenodd"/><path d="M263.5 1259.83C263.5 1204.97 390.875 1160.5 548 1160.5 705.125 1160.5 832.5 1204.97 832.5 1259.83L832.5 1657.17C832.5 1712.03 705.125 1756.5 548 1756.5 390.875 1756.5 263.5 1712.03 263.5 1657.17Z" stroke="#000000" stroke-width="6.875" stroke-miterlimit="8" fill="none" fill-rule="evenodd"/><text font-family="Yu Gothic,Yu Gothic_MSFontService,sans-serif" font-weight="400" font-size="83" transform="matrix(1 0 0 1 370.48 1484)">bulk data</text><text font-family="Yu Gothic,Yu Gothic_MSFontService,sans-serif" font-weight="400" font-size="83" transform="matrix(1 0 0 1 356.73 1583)">(MRI etc.)</text><path d="M1714 1152.5C1714 1082.64 1770.64 1026 1840.5 1026L2346.5 1026C2416.36 1026 2473 1082.64 2473 1152.5L2473 1762.5C2473 1832.36 2416.36 1889 2346.5 1889L1840.5 1889C1770.64 1889 1714 1832.36 1714 1762.5Z" fill="#000000" fill-rule="evenodd" fill-opacity="0.501961"/><text fill="#FFFFFF" font-family="Yu Gothic,Yu Gothic_MSFontService,sans-serif" font-weight="700" font-size="83" transform="matrix(1 0 0 1 1811.94 1156)">DXJupyterLab</text><text fill="#FFFFFF" font-family="Yu Gothic,Yu Gothic_MSFontService,sans-serif" font-weight="400" font-size="83" transform="matrix(1 0 0 1 1882.69 1354)">Docker VM</text><path d="M1824.5 1507.83C1824.5 1472.3 1853.3 1443.5 1888.83 1443.5L2299.17 1443.5C2334.7 1443.5 2363.5 1472.3 2363.5 1507.83L2363.5 1765.17C2363.5 1800.7 2334.7 1829.5 2299.17 1829.5L1888.83 1829.5C1853.3 1829.5 1824.5 1800.7 1824.5 1765.17Z" stroke="#000000" stroke-width="6.875" stroke-miterlimit="8" fill-rule="evenodd"/><text fill="#FFFFFF" font-family="Yu Gothic,Yu Gothic_MSFontService,sans-serif" font-weight="400" font-size="83" transform="matrix(1 0 0 1 1954.87 1563)">pandas</text><text fill="#FFFFFF" font-family="Yu Gothic,Yu Gothic_MSFontService,sans-serif" font-weight="400" font-size="83" transform="matrix(1 0 0 1 1895.59 1662)">Freesurfer</text><text fill="#FFFFFF" font-family="Yu Gothic,Yu Gothic_MSFontService,sans-serif" font-weight="400" font-size="83" transform="matrix(1 0 0 1 2024.2 1761)">etc.</text><path d="M3249.5 1704.5 3415.3 1211.5 4078.5 1211.5 3912.7 1704.5Z" stroke="#000000" stroke-width="6.875" stroke-miterlimit="8" fill="#FFFFFF" fill-rule="evenodd"/><text font-family="Yu Gothic,Yu Gothic_MSFontService,sans-serif" font-weight="400" font-size="83" transform="matrix(1 0 0 1 3574.23 1435)">User </text><text font-family="Yu Gothic,Yu Gothic_MSFontService,sans-serif" font-weight="400" font-size="83" transform="matrix(1 0 0 1 3510.33 1534)">browser</text><path d="M1.92784e-06-4.58333 835.083-4.58298 835.083 4.58368-1.92784e-06 4.58333ZM830.5-13.7497 858 0.000360892 830.5 13.7503Z" transform="matrix(-1 0 0 1 3331.5 1458.5)"/><text font-family="Yu Gothic,Yu Gothic_MSFontService,sans-serif" font-weight="400" font-size="83" transform="matrix(1 0 0 1 2751.45 1583)">HTTPS</text><path d="M3330 1463.04 2493.64 1172.35 2496.65 1163.69 3333 1454.38ZM2494.96 1182.52 2473.5 1160.5 2503.99 1156.54Z"/><text font-family="Yu Gothic,Yu Gothic_MSFontService,sans-serif" font-weight="400" font-size="83" transform="matrix(1 0 0 1 2804.41 1204)">activate</text><path d="M855.417 1453.92 1691.35 1453.92 1691.35 1463.08 855.417 1463.08ZM860 1472.25 832.5 1458.5 860 1444.75ZM1686.77 1444.75 1714.27 1458.5 1686.77 1472.25Z"/></g></svg>