<svg width="4156" height="1565" xmlns="http://www.w3.org/2000/svg" xmlns:xlink="http://www.w3.org/1999/xlink" xml:space="preserve" overflow="hidden"><defs><clipPath id="clip0"><rect x="35" y="564" width="4156" height="1565"/></clipPath></defs><g clip-path="url(#clip0)" transform="translate(-35 -564)"><rect x="35.0001" y="564" width="4156" height="1565" fill="#FFFFFF"/><rect x="1071.5" y="657.5" width="2064" height="1293" stroke="#000000" stroke-width="6.875" stroke-miterlimit="8" fill="#FFFFFF"/><text font-family="Arial Nova,Arial Nova_MSFontService,sans-serif" font-weight="400" font-size="147" transform="matrix(1 0 0 1 1605.01 816)">UKB</text><text font-family="Arial Nova,Arial Nova_MSFontService,sans-serif" font-weight="400" font-size="147" transform="matrix(1 0 0 1 1902.86 816)">-</text><text font-family="Arial Nova,Arial Nova_MSFontService,sans-serif" font-weight="400" font-size="147" transform="matrix(1 0 0 1 1951.56 816)">RAP AWS</text><path d="M1147 1075.67C1147 1005.71 1203.71 949 1273.67 949L1780.33 949C1850.29 949 1907 1005.71 1907 1075.67L1907 1762.33C1907 1832.29 1850.29 1889 1780.33 1889L1273.67 1889C1203.71 1889 1147 1832.29 1147 1762.33Z" fill="#000000" fill-rule="evenodd" fill-opacity="0.501961"/><text fill="#FFFFFF" font-family="Arial Nova,Arial Nova_MSFontService,sans-serif" font-weight="700" font-size="83" transform="matrix(1 0 0 1 1247.88 1082)">DXJupyterLab</text><text fill="#FFFFFF" font-family="Arial Nova,Arial Nova_MSFontService,sans-serif" font-weight="400" font-size="83" transform="matrix(1 0 0 1 1324.03 1280)">Docker VM</text><path d="M1266.5 1458.67C1266.5 1417.71 1299.71 1384.5 1340.67 1384.5L1730.33 1384.5C1771.29 1384.5 1804.5 1417.71 1804.5 1458.67L1804.5 1755.33C1804.5 1796.29 1771.29 1829.5 1730.33 1829.5L1340.67 1829.5C1299.71 1829.5 1266.5 1796.29 1266.5 1755.33Z" stroke="#000000" stroke-width="6.875" stroke-miterlimit="8" fill-rule="evenodd"/><text fill="#FFFFFF" font-family="Arial Nova,Arial Nova_MSFontService,sans-serif" font-weight="700" font-size="83" transform="matrix(1 0 0 1 1406.69 1488)">Kernel</text><text fill="#FFFFFF" font-family="Arial Nova,Arial Nova_MSFontService,sans-serif" font-weight="400" font-size="83" transform="matrix(1 0 0 1 1358.87 1587)">Python, R</text><text fill="#FFFFFF" font-family="Arial Nova,Arial Nova_MSFontService,sans-serif" font-weight="400" font-size="83" transform="matrix(1 0 0 1 1347.09 1686)">Freesurfer</text><text fill="#FFFFFF" font-family="Arial Nova,Arial Nova_MSFontService,sans-serif" font-weight="400" font-size="83" transform="matrix(1 0 0 1 1469.23 1785)">etc.</text><text font-family="Arial Nova,Arial Nova_MSFontService,sans-serif" font-weight="400" font-size="83" transform="matrix(1 0 0 1 3168 1399)">HTTPS</text><path d="M2282.74 1307.22 1926.13 1134.61 1930.12 1126.36 2286.73 1298.97ZM1926.26 1144.86 1907.5 1120.5 1938.24 1120.11Z"/><text font-family="Arial Nova,Arial Nova_MSFontService,sans-serif" font-weight="400" font-size="83" transform="matrix(1 0 0 1 1999.1 1103)">activate</text><path d="M754.416 1414.92 1124.25 1414.92 1124.25 1424.08 754.416 1424.08ZM759 1433.25 731.5 1419.5 759 1405.75ZM1119.67 1405.75 1147.17 1419.5 1119.67 1433.25Z"/><path d="M3466.5 1588.5 3594.7 1250.5 4107.5 1250.5 3979.3 1588.5Z" stroke="#000000" stroke-width="6.875" stroke-miterlimit="8" fill="#FFFFFF" fill-rule="evenodd"/><text font-family="Arial Nova,Arial Nova_MSFontService,sans-serif" font-weight="400" font-size="83" transform="matrix(1 0 0 1 3700.27 1400)">User </text><text font-family="Arial Nova,Arial Nova_MSFontService,sans-serif" font-weight="400" font-size="83" transform="matrix(1 0 0 1 3639.1 1499)">browser</text><path d="M98.5002 1666.28C370.983 1734.51 370.983 1598.04 643.437 1598.04L643.437 1243.35 98.5002 1243.35ZM143.396 1243.35 143.396 1197.37 684.611 1197.37 684.611 1554.29C664.039 1554.29 643.437 1556.76 643.437 1556.76L643.437 1243.35ZM185.596 1197.37 185.596 1152.5 731.5 1152.5 731.5 1508.3C708.056 1508.3 684.611 1510.16 684.611 1510.16L684.611 1197.37Z" fill="#FFFFFF" fill-rule="evenodd"/><path d="M98.5002 1243.35 643.437 1243.35 643.437 1598.04C370.983 1598.04 370.983 1734.51 98.5002 1666.28ZM143.396 1243.35 143.396 1197.37 684.611 1197.37 684.611 1554.29C664.039 1554.29 643.437 1556.76 643.437 1556.76M185.596 1197.37 185.596 1152.5 731.5 1152.5 731.5 1508.3C708.056 1508.3 684.611 1510.16 684.611 1510.16" stroke="#000000" stroke-width="6.875" stroke-miterlimit="8" fill="none" fill-rule="evenodd"/><text font-family="Arial Nova,Arial Nova_MSFontService,sans-serif" font-weight="400" font-size="83" transform="matrix(1 0 0 1 204.86 1435)">bulk data</text><text font-family="Arial Nova,Arial Nova_MSFontService,sans-serif" font-weight="400" font-size="83" transform="matrix(1 0 0 1 194.387 1534)">(MRI etc.)</text><rect x="2284.5" y="1172.5" width="615" height="494" fill="#FFFFFF"/><path d="M2361.38 1172.5 2361.38 1666.5M2284.5 1234.25 2899.5 1234.25" stroke="#000000" stroke-width="6.875" stroke-miterlimit="8" fill="none" fill-rule="evenodd"/><rect x="2284.5" y="1172.5" width="615" height="494" stroke="#000000" stroke-width="6.875" stroke-miterlimit="8" fill="none"/><text font-family="Arial Nova,Arial Nova_MSFontService,sans-serif" font-weight="400" font-size="83" transform="matrix(1 0 0 1 2502.42 1332)">Project</text><text font-family="Arial Nova,Arial Nova_MSFontService,sans-serif" font-weight="400" font-size="83" transform="matrix(1 0 0 1 2415.15 1530)">Cohort TSV</text><text font-family="Arial Nova,Arial Nova_MSFontService,sans-serif" font-weight="400" font-size="83" transform="matrix(1 0 0 1 2453.79 1629)">Noteboo</text><text font-family="Arial Nova,Arial Nova_MSFontService,sans-serif" font-weight="400" font-size="83" transform="matrix(1 0 0 1 2764.63 1629)">k</text><text font-family="Arial Nova,Arial Nova_MSFontService,sans-serif" font-weight="400" font-size="83" transform="matrix(1 0 0 1 2024.78 1671)">load</text><path d="M2.904e-06-4.58333 546.674-4.58299 546.674 4.58368-2.904e-06 4.58333ZM542.09-13.7497 569.59 0.000360892 542.09 13.7503Z" transform="matrix(-1 0 0 1 2394.09 1574.5)"/><path d="M2.62026e-06-4.58333 608.353-4.58299 608.353 4.58368-2.62026e-06 4.58333ZM603.769-13.7497 631.269 0.000360892 603.769 13.7503Z" transform="matrix(-1 0 0 1 3530.77 1419.5)"/></g></svg>